<svg width="100" height="100" viewBox="0 0 64 64" fill="none" xmlns="http://www.w3.org/2000/svg">
  <!-- Background circle -->
  <circle cx="32" cy="32" r="30" fill="#f0f4f8" stroke="#1e40af" stroke-width="2"/>
  
  <!-- Government building -->
  <path d="M16 44H48V40H16V44Z" fill="#1e40af"/>
  <path d="M20 40V28H44V40H20Z" fill="#3b82f6"/>
  <path d="M24 28V24H40V28H24Z" fill="#2563eb"/>
  <path d="M28 24V20H36V24H28Z" fill="#1e40af"/>
  
  <!-- Dome -->
  <path d="M32 16C28 16 28 20 32 20C36 20 36 16 32 16Z" fill="#3b82f6"/>
  
  <!-- Pillars -->
  <line x1="22" y1="40" x2="22" y2="28" stroke="#1e40af" stroke-width="2"/>
  <line x1="26" y1="40" x2="26" y2="28" stroke="#1e40af" stroke-width="2"/>
  <line x1="30" y1="40" x2="30" y2="28" stroke="#1e40af" stroke-width="2"/>
  <line x1="34" y1="40" x2="34" y2="28" stroke="#1e40af" stroke-width="2"/>
  <line x1="38" y1="40" x2="38" y2="28" stroke="#1e40af" stroke-width="2"/>
</svg>
