<svg width="100" height="100" viewBox="0 0 64 64" fill="none" xmlns="http://www.w3.org/2000/svg">
  <!-- Background circle -->
  <circle cx="32" cy="32" r="30" fill="#f0f4f8" stroke="#1e40af" stroke-width="2"/>

  <!-- Headset -->
  <path d="M20 36C20 27.163 27.163 20 36 20C44.837 20 52 27.163 52 36V44H48V36C48 29.373 42.627 24 36 24C29.373 24 24 29.373 24 36V44H20V36Z" fill="#3b82f6"/>

  <!-- Microphone -->
  <path d="M20 44H24V50C24 51.1046 23.1046 52 22 52C20.8954 52 20 51.1046 20 50V44Z" fill="#1e40af"/>

  <!-- Clock -->
  <circle cx="36" cy="36" r="10" stroke="#f97316" stroke-width="2"/>
  <line x1="36" y1="36" x2="36" y2="31" stroke="#f97316" stroke-width="2" stroke-linecap="round"/>
  <line x1="36" y1="36" x2="40" y2="36" stroke="#f97316" stroke-width="2" stroke-linecap="round"/>
</svg>
